<svg width="352" height="50" viewBox="0 0 352 50" fill="none" xmlns="http://www.w3.org/2000/svg">
<path d="M35.5745 2.99433C32.5787 5.71074 31.3305 10.6711 33.4525 10.6711C34.0766 10.6711 35.2 9.37198 35.9489 7.71852C40.1929 -0.90313 54.1731 3.34864 51.3021 12.4427C49.8043 17.0488 47.9319 18.5842 36.8227 24.2532C4.11915 40.9059 0 43.3861 0 47.5198C0 49.5276 2.24681 49.6457 43.6879 49.6457C86.627 49.6457 87.3759 49.6457 87.3759 47.2836C87.3759 45.9844 86.0028 43.8586 84.3801 42.4413C80.7603 39.3706 52.4255 24.8437 50.3036 24.8437C46.0596 24.8437 50.0539 27.7963 64.034 34.7645C79.3872 42.6775 83.6312 45.1577 83.6312 46.575C83.6312 46.9293 65.5319 47.2836 43.4383 47.2836C-4.11915 47.2836 -2.99574 48.4646 28.0851 32.5205C39.0695 26.8515 49.5546 20.71 51.5518 18.8204C56.5447 13.7419 55.7957 5.71074 50.0539 1.57707C46.5589 -1.02123 38.9447 -0.312607 35.5745 2.99433Z" fill="#9118F0"/>
<path d="M190.979 24.2532V48.4646H196.596H202.213V24.2532V0.0416946H196.596H190.979V24.2532Z" fill="#3E3D3D"/>
<path d="M328.284 20.2376C328.284 33.8197 328.658 36.2999 330.905 40.1973C334.026 45.512 338.769 48.2284 346.258 49.1733L352 50V44.4491C352 39.0163 352 39.0163 347.881 39.0163C342.264 39.0163 339.518 35.9455 339.518 29.8041V24.8437H344.511H349.504V20.1195C349.504 15.3953 349.504 15.3953 344.635 15.3953C339.643 15.3953 339.643 15.3953 339.268 10.3168C338.894 5.35641 338.894 5.35641 333.651 5.0021L328.284 4.64779V20.2376Z" fill="#3E3D3D"/>
<path d="M160.397 7.6004C148.165 12.6789 143.796 29.0955 151.66 40.4335C156.777 47.756 165.39 50.5905 177.872 49.0552L184.738 48.3465V43.1499V38.0714L176.749 38.6619C172.38 39.0163 167.262 39.0163 165.515 38.5438C158.525 36.8904 156.403 24.017 162.27 18.466C165.016 15.8677 174.377 15.041 181.367 16.9307C184.738 17.7574 184.738 17.7574 184.738 12.5608C184.738 8.89955 184.113 7.12798 182.74 6.65556C179.245 5.35641 164.267 5.94693 160.397 7.6004Z" fill="#3E3D3D"/>
<path d="M119.455 14.6867C110.593 17.7574 107.348 22.4816 107.348 32.4024C107.348 37.9533 107.847 39.4887 111.092 42.9137C116.335 48.5827 125.572 50.8267 135.932 48.937C139.552 48.2284 139.801 47.756 139.801 43.268V38.4257L131.438 38.78C125.572 39.0163 122.201 38.6619 120.579 37.4809C118.457 36.0636 118.956 35.8274 125.572 35.9455C134.434 35.9455 140.051 33.4653 142.173 28.5049C146.417 19.0566 132.062 10.3168 119.455 14.6867ZM130.814 25.6704C130.315 28.1506 122.826 29.3317 120.579 27.2058C118.706 25.4342 121.827 23.6626 127.07 23.6626C130.44 23.6626 131.189 24.1351 130.814 25.6704Z" fill="#3E3D3D"/>
<path d="M220.562 14.6867C213.946 16.9307 209.952 20.8281 208.329 26.2609C203.586 43.1499 222.809 55.4328 239.16 45.9844C244.777 42.7956 247.648 36.536 246.774 29.4498C245.901 22.7178 244.403 20.2376 239.16 16.9307C233.918 13.6237 226.428 12.6789 220.562 14.6867ZM233.668 25.6704C236.414 28.0325 236.539 33.9377 233.793 36.8904C230.797 40.0792 222.933 39.7249 220.437 36.4179C217.691 32.7567 217.94 28.8592 220.936 26.0247C223.932 23.1902 230.548 22.954 233.668 25.6704Z" fill="#3E3D3D"/>
<path d="M261.129 14.2143C250.769 16.5764 247.773 26.9696 255.762 32.7567C256.885 33.5834 261.004 34.8826 264.999 35.5912C278.355 38.1895 273.736 41.1421 259.257 39.2525L250.894 38.1895V43.1499C250.894 47.9922 251.018 48.2284 255.637 48.9371C269.367 51.0629 279.977 48.2284 282.848 41.8508C284.096 39.0163 284.221 37.1266 283.348 34.7645C281.475 30.2765 278.854 28.7412 269.991 27.0877C265.623 26.261 262.128 25.0799 262.128 24.4894C262.128 23.8989 266.496 23.5445 272.113 23.8989L282.099 24.2532V19.8833C282.099 17.5212 281.725 15.2772 281.226 15.041C279.104 13.86 264.999 13.2694 261.129 14.2143Z" fill="#3E3D3D"/>
<path d="M301.072 14.2143C295.955 15.3953 291.087 19.4109 288.84 24.4894C286.593 29.4498 286.593 33.2291 289.089 39.0163C292.46 46.8112 301.572 50.5905 314.054 49.0552L320.794 48.3465V43.3861V38.4257L312.431 38.7801C306.065 39.0163 303.319 38.6619 301.447 37.2447C299.075 35.355 299.075 35.355 303.319 35.9455C309.311 36.7723 316.675 35.0007 320.295 31.8119C326.411 26.3791 322.667 16.6945 313.555 14.2143C308.312 12.9151 306.939 12.9151 301.072 14.2143ZM311.433 26.0247C311.433 28.0325 307.064 28.9774 302.196 27.7963C299.075 27.0877 298.95 26.9696 301.447 25.3161C304.567 23.0721 311.433 23.5445 311.433 26.0247Z" fill="#3E3D3D"/>
</svg>
